dataset
version=1
nRows=14
nColumns=39
inDegrees=no
endheader
time	sternoclavicular_r2	sternoclavicular_r3	unrotscap_r3	unrotscap_r2	acromioclavicular_r2	acromioclavicular_r3	acromioclavicular_r1	unrothum_r1	unrothum_r3	unrothum_r2	elv_angle	shoulder_elv	shoulder1_r2	shoulder_rot	elbow_flexion	pro_sup	deviation	flexion	cmc_abduction	cmc_flexion	mp_flexion	ip_flexion	mcp2_flexion	mcp2_abduction	pm2_flexion	md2_flexion	mcp3_flexion	mcp3_abduction	pm3_flexion	md3_flexion	mcp4_flexion	mcp4_abduction	pm4_flexion	md4_flexion	mcp5_flexion	mcp5_abduction	pm5_flexion	md5_flexion
0.000000	-0.024293	-0.318842	0.151976	0.142146	0.122609	0.097226	-0.126216	-0.084508	0.069857	0.175840	0.159202	0.027437	0.146525	0.146525	1.594353	0.910237	0.000000	0.000000	0.000000	0.000000	0.000000	0.000000	0.000000	0.000000	0.000000	0.000000	0.000000	0.000000	0.000000	0.000000	0.000000	0.000000	0.000000	0.000000	0.000000	0.000000	0.000000	0.000000
0.005000	-0.024253	-0.318801	0.151971	0.142005	0.122529	0.096907	-0.126385	-0.084654	0.069478	0.175853	0.159076	0.027437	0.146525	0.146525	1.594509	0.915411	0.000000	0.000000	0.000000	0.000000	0.000000	0.000000	0.000000	0.000000	0.000000	0.000000	0.000000	0.000000	0.000000	0.000000	0.000000	0.000000	0.000000	0.000000	0.000000	0.000000	0.000000	0.000000
0.010000	-0.024213	-0.318760	0.151959	0.141860	0.122447	0.096576	-0.126549	-0.084822	0.069105	0.175870	0.158950	0.027437	0.146525	0.146525	1.594663	0.920517	0.000000	0.000000	0.000000	0.000000	0.000000	0.000000	0.000000	0.000000	0.000000	0.000000	0.000000	0.000000	0.000000	0.000000	0.000000	0.000000	0.000000	0.000000	0.000000	0.000000	0.000000	0.000000
0.015000	-0.024172	-0.318720	0.151942	0.141712	0.122363	0.096237	-0.126715	-0.085004	0.068733	0.175889	0.158824	0.027437	0.146525	0.146525	1.594815	0.925555	0.000000	0.000000	0.000000	0.000000	0.000000	0.000000	0.000000	0.000000	0.000000	0.000000	0.000000	0.000000	0.000000	0.000000	0.000000	0.000000	0.000000	0.000000	0.000000	0.000000	0.000000	0.000000
0.020000	-0.024130	-0.318681	0.151925	0.141562	0.122279	0.095893	-0.126882	-0.085194	0.068358	0.175910	0.158697	0.027437	0.146525	0.146525	1.594964	0.930526	0.000000	0.000000	0.000000	0.000000	0.000000	0.000000	0.000000	0.000000	0.000000	0.000000	0.000000	0.000000	0.000000	0.000000	0.000000	0.000000	0.000000	0.000000	0.000000	0.000000	0.000000	0.000000
0.025000	-0.024089	-0.318645	0.151909	0.141412	0.122195	0.095543	-0.127054	-0.085390	0.067980	0.175934	0.158570	0.027437	0.146525	0.146525	1.595110	0.935432	0.000000	0.000000	0.000000	0.000000	0.000000	0.000000	0.000000	0.000000	0.000000	0.000000	0.000000	0.000000	0.000000	0.000000	0.000000	0.000000	0.000000	0.000000	0.000000	0.000000	0.000000	0.000000
0.030000	-0.024046	-0.318611	0.151895	0.141261	0.122111	0.095189	-0.127231	-0.085591	0.067597	0.175959	0.158442	0.027437	0.146525	0.146525	1.595253	0.940272	0.000000	0.000000	0.000000	0.000000	0.000000	0.000000	0.000000	0.000000	0.000000	0.000000	0.000000	0.000000	0.000000	0.000000	0.000000	0.000000	0.000000	0.000000	0.000000	0.000000	0.000000	0.000000
0.035000	-0.024004	-0.318580	0.151884	0.141110	0.122028	0.094832	-0.127412	-0.085794	0.067210	0.175986	0.158314	0.027437	0.146525	0.146525	1.595393	0.945048	0.000000	0.000000	0.000000	0.000000	0.000000	0.000000	0.000000	0.000000	0.000000	0.000000	0.000000	0.000000	0.000000	0.000000	0.000000	0.000000	0.000000	0.000000	0.000000	0.000000	0.000000	0.000000
0.040000	-0.023962	-0.318552	0.151876	0.140958	0.121945	0.094472	-0.127599	-0.086001	0.066818	0.176014	0.158186	0.027437	0.146525	0.146525	1.595531	0.949760	0.000000	0.000000	0.000000	0.000000	0.000000	0.000000	0.000000	0.000000	0.000000	0.000000	0.000000	0.000000	0.000000	0.000000	0.000000	0.000000	0.000000	0.000000	0.000000	0.000000	0.000000	0.000000
0.045000	-0.023919	-0.318526	0.151871	0.140807	0.121863	0.094110	-0.127791	-0.086210	0.066422	0.176044	0.158058	0.027437	0.146525	0.146525	1.595666	0.954409	0.000000	0.000000	0.000000	0.000000	0.000000	0.000000	0.000000	0.000000	0.000000	0.000000	0.000000	0.000000	0.000000	0.000000	0.000000	0.000000	0.000000	0.000000	0.000000	0.000000	0.000000	0.000000
0.050000	-0.023877	-0.318504	0.151870	0.140657	0.121782	0.093746	-0.127988	-0.086421	0.066022	0.176076	0.157929	0.027437	0.146525	0.146525	1.595799	0.958996	0.000000	0.000000	0.000000	0.000000	0.000000	0.000000	0.000000	0.000000	0.000000	0.000000	0.000000	0.000000	0.000000	0.000000	0.000000	0.000000	0.000000	0.000000	0.000000	0.000000	0.000000	0.000000
0.055000	-0.023834	-0.318484	0.151872	0.140507	0.121701	0.093380	-0.128190	-0.086634	0.065619	0.176109	0.157801	0.027437	0.146525	0.146525	1.595930	0.963521	0.000000	0.000000	0.000000	0.000000	0.000000	0.000000	0.000000	0.000000	0.000000	0.000000	0.000000	0.000000	0.000000	0.000000	0.000000	0.000000	0.000000	0.000000	0.000000	0.000000	0.000000	0.000000
0.060000	-0.023792	-0.318468	0.151878	0.140357	0.121621	0.093013	-0.128397	-0.086848	0.065213	0.176143	0.157673	0.027437	0.146525	0.146525	1.596059	0.967986	0.000000	0.000000	0.000000	0.000000	0.000000	0.000000	0.000000	0.000000	0.000000	0.000000	0.000000	0.000000	0.000000	0.000000	0.000000	0.000000	0.000000	0.000000	0.000000	0.000000	0.000000	0.000000
0.065000	-0.023750	-0.318454	0.151887	0.140209	0.121543	0.092646	-0.128608	-0.087065	0.064805	0.176179	0.157545	0.027437	0.146525	0.146525	1.596186	0.972390	0.000000	0.000000	0.000000	0.000000	0.000000	0.000000	0.000000	0.000000	0.000000	0.000000	0.000000	0.000000	0.000000	0.000000	0.000000	0.000000	0.000000	0.000000	0.000000	0.000000	0.000000	0.000000
